<svg width="40" height="40" viewBox="0 0 40 40" fill="none" xmlns="http://www.w3.org/2000/svg">
<rect width="40" height="40" rx="20" fill="#FFF7CC"/>
<path d="M22.35 10H17.65C16.61 10 15.76 10.84 15.76 11.88V12.82C15.76 13.86 16.6 14.7 17.64 14.7H22.35C23.39 14.7 24.23 13.86 24.23 12.82V11.88C24.24 10.84 23.39 10 22.35 10Z" fill="#FFC100"/>
<path d="M25.24 12.8205C25.24 14.4105 23.94 15.7105 22.35 15.7105H17.65C16.06 15.7105 14.76 14.4105 14.76 12.8205C14.76 12.2605 14.16 11.9105 13.66 12.1705C12.25 12.9205 11.29 14.4105 11.29 16.1205V25.5305C11.29 27.9905 13.3 30.0005 15.76 30.0005H24.24C26.7 30.0005 28.71 27.9905 28.71 25.5305V16.1205C28.71 14.4105 27.75 12.9205 26.34 12.1705C25.84 11.9105 25.24 12.2605 25.24 12.8205ZM23.34 20.7305L19.34 24.7305C19.19 24.8805 19 24.9505 18.81 24.9505C18.62 24.9505 18.43 24.8805 18.28 24.7305L16.78 23.2305C16.49 22.9405 16.49 22.4605 16.78 22.1705C17.07 21.8805 17.55 21.8805 17.84 22.1705L18.81 23.1405L22.28 19.6705C22.57 19.3805 23.05 19.3805 23.34 19.6705C23.63 19.9605 23.63 20.4405 23.34 20.7305Z" fill="#FFC100"/>
</svg>
