<svg width="40" height="40" viewBox="0 0 40 40" fill="none" xmlns="http://www.w3.org/2000/svg">
<rect width="40" height="40" rx="20" fill="#FFF1CD"/>
<path d="M25.39 23.67L21.35 20H18.64L14.6 23.67C13.47 24.69 13.1 26.26 13.65 27.68C14.2 29.09 15.54 30 17.05 30H22.94C24.46 30 25.79 29.09 26.34 27.68C26.89 26.26 26.52 24.69 25.39 23.67ZM21.82 26.14H18.18C17.8 26.14 17.5 25.83 17.5 25.46C17.5 25.09 17.81 24.78 18.18 24.78H21.82C22.2 24.78 22.5 25.09 22.5 25.46C22.5 25.83 22.19 26.14 21.82 26.14Z" fill="#FF8A07"/>
<path d="M26.3499 12.32C25.7999 10.91 24.4599 10 22.9499 10H17.0499C15.5399 10 14.1999 10.91 13.6499 12.32C13.1099 13.74 13.4799 15.31 14.6099 16.33L18.6499 20H21.3599L25.3999 16.33C26.5199 15.31 26.8899 13.74 26.3499 12.32ZM21.8199 15.23H18.1799C17.7999 15.23 17.4999 14.92 17.4999 14.55C17.4999 14.18 17.8099 13.87 18.1799 13.87H21.8199C22.1999 13.87 22.4999 14.18 22.4999 14.55C22.4999 14.92 22.1899 15.23 21.8199 15.23Z" fill="#FF8A07"/>
</svg>
