<svg width="32" height="32" viewBox="0 0 32 32" fill="none" xmlns="http://www.w3.org/2000/svg">
<path d="M16.0267 3.87988C11.6133 3.87988 8.02666 7.46655 8.02666 11.8799V15.7332C8.02666 16.5466 7.67999 17.7865 7.26666 18.4799L5.73333 21.0266C4.78666 22.5999 5.44 24.3466 7.17333 24.9332C12.92 26.8532 19.12 26.8532 24.8667 24.9332C26.48 24.3999 27.1867 22.4932 26.3067 21.0266L24.7733 18.4799C24.3733 17.7865 24.0267 16.5466 24.0267 15.7332V11.8799C24.0267 7.47988 20.4267 3.87988 16.0267 3.87988Z" stroke="#292D32" stroke-width="1.5" stroke-miterlimit="10" stroke-linecap="round"/>
<path d="M18.4934 4.26667C18.0801 4.14667 17.6534 4.05334 17.2134 4C15.9334 3.84 14.7067 3.93334 13.5601 4.26667C13.9467 3.28 14.9067 2.58667 16.0267 2.58667C17.1467 2.58667 18.1067 3.28 18.4934 4.26667Z" stroke="#292D32" stroke-width="1.5" stroke-miterlimit="10" stroke-linecap="round" stroke-linejoin="round"/>
<path d="M20.0266 25.4133C20.0266 27.6133 18.2266 29.4133 16.0266 29.4133C14.9333 29.4133 13.9199 28.96 13.1999 28.24C12.4799 27.52 12.0266 26.5067 12.0266 25.4133" stroke="#292D32" stroke-width="1.5" stroke-miterlimit="10"/>
</svg>
