<svg width="28" height="28" viewBox="0 0 28 28" fill="none" xmlns="http://www.w3.org/2000/svg">
<path fill-rule="evenodd" clip-rule="evenodd" d="M10.8034 18.1829C10.5474 18.1829 10.2914 18.0856 10.0967 17.8896C9.70604 17.4989 9.70604 16.8669 10.0967 16.4763L16.486 10.0869C16.8767 9.69628 17.5087 9.69628 17.8994 10.0869C18.29 10.4776 18.29 11.1096 17.8994 11.5003L11.51 17.8896C11.3154 18.0856 11.0594 18.1829 10.8034 18.1829" fill="#828282"/>
<path fill-rule="evenodd" clip-rule="evenodd" d="M17.1954 18.1867C16.9394 18.1867 16.6834 18.0893 16.4887 17.8933L10.094 11.4973C9.70336 11.1067 9.70336 10.4747 10.094 10.084C10.486 9.69335 11.118 9.69335 11.5074 10.084L17.902 16.48C18.2927 16.8707 18.2927 17.5027 17.902 17.8933C17.7074 18.0893 17.45 18.1867 17.1954 18.1867" fill="#828282"/>
<path fill-rule="evenodd" clip-rule="evenodd" d="M8.22002 2.66699C4.84669 2.66699 2.66669 4.97766 2.66669 8.55499V19.4457C2.66669 23.023 4.84669 25.3337 8.22002 25.3337H19.7774C23.152 25.3337 25.3334 23.023 25.3334 19.4457V8.55499C25.3334 4.97766 23.152 2.66699 19.7787 2.66699H8.22002ZM19.7774 27.3337H8.22002C3.70135 27.3337 0.666687 24.163 0.666687 19.4457V8.55499C0.666687 3.83766 3.70135 0.666992 8.22002 0.666992H19.7787C24.2974 0.666992 27.3334 3.83766 27.3334 8.55499V19.4457C27.3334 24.163 24.2974 27.3337 19.7774 27.3337V27.3337Z" fill="#828282"/>
</svg>
