<svg width="28" height="28" viewBox="0 0 28 28" fill="none" xmlns="http://www.w3.org/2000/svg">
<path d="M23.2168 15.75H4.7835C3.0335 15.75 2.3335 16.4967 2.3335 18.3517V23.065C2.3335 24.92 3.0335 25.6667 4.7835 25.6667H23.2168C24.9668 25.6667 25.6668 24.92 25.6668 23.065V18.3517C25.6668 16.4967 24.9668 15.75 23.2168 15.75Z" stroke="#292D32" stroke-width="1.5" stroke-linecap="round" stroke-linejoin="round"/>
<path d="M23.2168 2.33331H4.7835C3.0335 2.33331 2.3335 3.07998 2.3335 4.93498V9.64831C2.3335 11.5033 3.0335 12.25 4.7835 12.25H23.2168C24.9668 12.25 25.6668 11.5033 25.6668 9.64831V4.93498C25.6668 3.07998 24.9668 2.33331 23.2168 2.33331Z" stroke="#292D32" stroke-width="1.5" stroke-linecap="round" stroke-linejoin="round"/>
</svg>
