<svg width="20" height="20" viewBox="0 0 20 20" fill="none" xmlns="http://www.w3.org/2000/svg">
<path fill-rule="evenodd" clip-rule="evenodd" d="M8.75002 3.33306C7.31343 3.33306 5.93568 3.90374 4.91986 4.91956C3.90404 5.93538 3.33335 7.31313 3.33335 8.74972C3.33335 10.1863 3.90404 11.5641 4.91986 12.5799C5.93568 13.5957 7.31343 14.1664 8.75002 14.1664C10.1866 14.1664 11.5644 13.5957 12.5802 12.5799C13.596 11.5641 14.1667 10.1863 14.1667 8.74972C14.1667 7.31313 13.596 5.93538 12.5802 4.91956C11.5644 3.90374 10.1866 3.33306 8.75002 3.33306ZM1.66669 8.74972C1.66678 7.62022 1.93699 6.50711 2.45477 5.50327C2.97254 4.49943 3.72287 3.63397 4.64315 2.97909C5.56343 2.32421 6.62698 1.8989 7.74506 1.73865C8.86314 1.5784 10.0033 1.68785 11.0705 2.05787C12.1377 2.4279 13.1009 3.04776 13.8798 3.86575C14.6587 4.68375 15.2307 5.67614 15.548 6.76015C15.8654 7.84416 15.9189 8.98834 15.7041 10.0972C15.4893 11.2061 15.0125 12.2476 14.3134 13.1347L17.3567 16.1781C17.5085 16.3352 17.5925 16.5457 17.5906 16.7642C17.5887 16.9827 17.501 17.1917 17.3465 17.3462C17.192 17.5007 16.983 17.5884 16.7645 17.5903C16.546 17.5922 16.3355 17.5082 16.1784 17.3564L13.135 14.3131C12.0905 15.1364 10.8354 15.649 9.51313 15.7923C8.1909 15.9356 6.85504 15.7037 5.65843 15.1232C4.46183 14.5428 3.45282 13.6371 2.74688 12.51C2.04094 11.3828 1.6666 10.0797 1.66669 8.74972ZM7.91669 5.83306C7.91669 5.61204 8.00448 5.40008 8.16077 5.2438C8.31705 5.08752 8.52901 4.99972 8.75002 4.99972C9.74458 4.99972 10.6984 5.39481 11.4017 6.09807C12.1049 6.80133 12.5 7.75516 12.5 8.74972C12.5 8.97074 12.4122 9.1827 12.2559 9.33898C12.0997 9.49526 11.8877 9.58306 11.6667 9.58306C11.4457 9.58306 11.2337 9.49526 11.0774 9.33898C10.9212 9.1827 10.8334 8.97074 10.8334 8.74972C10.8334 8.19719 10.6139 7.66728 10.2232 7.27658C9.83246 6.88588 9.30256 6.66639 8.75002 6.66639C8.52901 6.66639 8.31705 6.57859 8.16077 6.42231C8.00448 6.26603 7.91669 6.05407 7.91669 5.83306Z" fill="white"/>
</svg>
