<svg width="72" height="72" viewBox="0 0 72 72" fill="none" xmlns="http://www.w3.org/2000/svg">
<path d="M24 36.6H45" stroke="white" stroke-width="4" stroke-miterlimit="10" stroke-linecap="round" stroke-linejoin="round"/>
<path d="M24 48.6H37.14" stroke="white" stroke-width="4" stroke-miterlimit="10" stroke-linecap="round" stroke-linejoin="round"/>
<path d="M30 18H42C48 18 48 15 48 12C48 6 45 6 42 6H30C27 6 24 6 24 12C24 18 27 18 30 18Z" stroke="white" stroke-width="4" stroke-miterlimit="10" stroke-linecap="round" stroke-linejoin="round"/>
<path d="M48 12.0601C57.99 12.6001 63 16.2901 63 30.0001V48.0001C63 60.0001 60 66.0001 45 66.0001H27C12 66.0001 9 60.0001 9 48.0001V30.0001C9 16.3201 14.01 12.6001 24 12.0601" stroke="white" stroke-width="4" stroke-miterlimit="10" stroke-linecap="round" stroke-linejoin="round"/>
</svg>
