<svg width="24" height="24" viewBox="0 0 24 24" fill="none" xmlns="http://www.w3.org/2000/svg">
<g clip-path="url(#clip0_529_2548)">
<path d="M20.9533 8.45C19.9033 3.83 15.8733 1.75 12.3333 1.75C12.3333 1.75 12.3333 1.75 12.3233 1.75C8.79335 1.75 4.75335 3.82 3.70335 8.44C2.53335 13.6 5.69335 17.97 8.55335 20.72C9.61335 21.74 10.9733 22.25 12.3333 22.25C13.6933 22.25 15.0533 21.74 16.1033 20.72C18.9633 17.97 22.1233 13.61 20.9533 8.45ZM12.3333 13.46C10.5933 13.46 9.18335 12.05 9.18335 10.31C9.18335 8.57 10.5933 7.16 12.3333 7.16C14.0733 7.16 15.4833 8.57 15.4833 10.31C15.4833 12.05 14.0733 13.46 12.3333 13.46Z" fill="black" fill-opacity="0.7"/>
</g>
<defs>
<clipPath id="clip0_529_2548">
<rect width="24" height="24" fill="white" transform="translate(0.333374)"/>
</clipPath>
</defs>
</svg>
